# xmcd
#
# Track frame offsets: 
#        150
#        11540
#        25366
#        37796
#        48496
#        62041
#        74154
#        85244
#        98063
#        110607
#        123591
#        136391
#        148073
#        160576
#        173060
#        185490
#        197898
#        207923
#        223816
#        236512
#        249674
#        264190
#        276814
#        290847
#        304329
#
# Disc length: 4229 seconds
#
# Revision: 4
# Processed by: cddbd v1.5.2PL0 Copyright (c) Steve Scherf et al.
# Submitted via: ExactAudioCopyFreeDBPlugin 1.0
#
DISCID=7e108319
DTITLE=Various Artist - Motown: The Complete No. 1's
DYEAR=2008
DGENRE=R&B
TTITLE0=The Tempations - Ain't Too Proud To Beg
TTITLE1=Stevie Wonder - Blowin' In The Wind
TTITLE2=The Supremes - You Can't Hurry Love
TTITLE3=The Temptations - Beauty Is Only Skin Deep
TTITLE4=Four Tops - Reach Out I'll Be There
TTITLE5=The Supremes - You Keep Me Hangin' On
TTITLE6=The Temptations - (I Know) I'm Losing You
TTITLE7=The Marvelettes - The Hunter Gets Captured By The Game
TTITLE8=The Supremes - Love Is Here And Now You're Gone
TTITLE9=Martha and The Vandellas - Jimmy Mack
TTITLE10=The Supremes - The Happening
TTITLE11=Stevie Wonder - I Was Made To Love Her
TTITLE12=Gladys Knight and The Pips - I Heard It Through The Grapevine
TTITLE13=Smokey Robinson and The Miracles - I Second That Emotion
TTITLE14=The Temptation - I Wish It Would Rain
TTITLE15=Stevie Wonder - Shoo-Be-Doo-Be-Doo-Da-Day
TTITLE16=Marvin Gaye and Tammy Terrell - Ain't Nothing Like The Real Thi
TTITLE16=ng
TTITLE17=The Temptations - I Could Never Love Another (After Loving Yo
TTITLE17=u)
TTITLE18=Marvin Gaye and Tammi Terrell - You're All I Need To Get By
TTITLE19=Diana Ross and The Supremes - Love Child
TTITLE20=Marvin Gaye - I Heard It Through The Grapevine
TTITLE21=Stevie Wonder - For Once In My Life
TTITLE22=Diana Ross and The Supremes And The Temptations - I'm Gonna Mak
TTITLE22=e You Love Me
TTITLE23=Jimmy Ruffin - What Becomes Of The Brokenhearted
TTITLE24=Brenda Holloway - You've Made Me So Very Happy
EXTD=
EXTT0=
EXTT1=
EXTT2=
EXTT3=
EXTT4=
EXTT5=
EXTT6=
EXTT7=
EXTT8=
EXTT9=
EXTT10=
EXTT11=
EXTT12=
EXTT13=
EXTT14=
EXTT15=
EXTT16=
EXTT17=
EXTT18=
EXTT19=
EXTT20=
EXTT21=
EXTT22=
EXTT23=
EXTT24=
PLAYORDER=
